# xmcd
#
# Track frame offsets: 
#        150
#        21308
#        46469
#        68225
#        102239
#        126587
#        150542
#        176717
#        198358
#        218962
#
# Disc length: 3209 seconds
#
# Revision: 6
# Processed by: cddbd v1.5.2PL0 Copyright (c) Steve Scherf et al.
# Submitted via: ExactAudioCopyFreeDBPlugin 1.0
#
DISCID=930c870a
DTITLE=Tony Joe White - Uncovered
DYEAR=2006
DGENRE=Pop
TTITLE0=Run for Cover
TTITLE1=Not One Bad Thought  [w. Mark Knopfler]
TTITLE2=Did Somebody Make a Fool Out of You  [w. Eric Clapton]
TTITLE3=Louvelda  [w. J.J. Cale]
TTITLE4=Rebellion
TTITLE5=Shakin' the Blues  [w. Waylon Jennings]
TTITLE6=Rainy Night in Georgia
TTITLE7=Baby Don't Look Down  [w. Michael McDonald]
TTITLE8=Taking the Midnight Train
TTITLE9=Keeper of the Fire
EXTD=YEAR: 2006
EXTT0=
EXTT1=
EXTT2=
EXTT3=
EXTT4=
EXTT5=
EXTT6=
EXTT7=
EXTT8=
EXTT9=
PLAYORDER=
